<?xml version="1.0" encoding="iso-8859-1"?>
<!-- Generator: Adobe Illustrator 21.0.2, SVG Export Plug-In . SVG Version: 6.00 Build 0)  -->
<svg version="1.1" id="Layer_1" xmlns="http://www.w3.org/2000/svg" xmlns:xlink="http://www.w3.org/1999/xlink" x="0px" y="0px"
	 viewBox="0 0 48 48" style="enable-background:new 0 0 48 48;" xml:space="preserve">
<circle style="fill:#2A2F96;" cx="24" cy="24" r="19"/>
<path style="fill:#E53935;" d="M4.597,30H3c0,0,4.077-3.084,12.928-5.535c0,0,14.202-4.313,23.428-10.583
	C42.565,11.177,45.071,8.764,46,7c0,0-1.193,4.725-6.726,10.351C38.191,17.906,37.768,18.64,37,19c0.126-0.142-0.096-0.871,0-1
	c0,0-7.195,3.355-22.02,7.77C14.981,25.768,8.742,27.352,4.597,30z"/>
<path style="fill:#FAFAFA;" d="M19.282,25.221l1.503,0.025l-0.771-1.835L19.282,25.221z M18.969,26.366l-0.274,0.96l0.802,0.441
	l-2.661-0.004l0.826-0.463l1.714-5.602l-0.935-0.467h3.167l2.639,6.068l0.528,0.467H21.08l0.528-0.467l-0.528-0.934H18.969z"/>
<path style="fill:#FAFAFA;" d="M29.12,23.374c0.576,0.135,2.526,1.143,1.848,3.129c0,0-0.841,2.476-5.435,0.998L25.021,28v-1.995
	l0.512,0.499c0,0,3.492,1.321,3.474-0.316c-0.005-0.319-0.603-0.845-2.205-1.048c0,0-1.802-0.053-1.781-2.128
	c0.008-0.843,0.626-2.964,5.121-1.497l0.464-0.518l-0.011,1.963l-0.453-0.448c0,0-2.661-0.834-2.926-0.008
	C26.934,23.381,28.316,23.185,29.12,23.374z"/>
<path style="fill:#E53935;" d="M39.461,17.149c-1.06,1.224-3.203,2.847-4.899,4.11c0,0-13.626,8.805-19.033,12.769
	c0,0-4.167,2.72-6.529,6.972v-1.618c0,0,2.255-3.163,7.585-6.937C21.273,29.125,35.281,20.744,37,18L39.461,17.149z"/>
<polygon style="fill:#FAFAFA;" points="8.667,21.257 11.834,21.257 14.473,25.459 14.473,21.724 13.945,21.257 16.056,21.257 
	15.528,21.724 15.528,27.326 16.056,27.793 12.889,27.793 10.251,23.592 10.251,27.326 10.778,27.793 8.667,27.793 9.195,27.326 
	9.195,21.724 "/>
<path style="fill:#FAFAFA;" d="M34.44,25.275l1.62-0.007l-0.87-1.919L34.44,25.275z M34.275,26.366l-0.33,0.934l0.858,0.467
	l-2.661-0.004l0.826-0.463l1.714-5.602l-0.935-0.467h3.167l2.639,6.068l0.528,0.467h-3.694l0.528-0.467l-0.528-0.934H34.275z"/>
<path style="fill:#FAFAFA;" d="M33.596,30.256c-0.743-2.933-2.427-6.293-4.742-9.462c-4.81-6.582-10.901-10.274-13.578-8.232
	c-1.316,1.006-1.627,3.2-0.871,6.181c0.743,2.933,2.427,6.293,4.742,9.462c1.008,1.379,1.618,2.143,2.695,3.243l0.68,0.255
	c-1.064-1.09-2.119-2.324-3.119-3.693c-2.291-3.135-3.957-6.455-4.689-9.348c-0.72-2.844-0.453-4.918,0.753-5.839
	c0.459-0.351,1.029-0.518,1.681-0.518c2.95,0,7.598,3.412,11.451,8.684c2.291,3.135,3.957,6.455,4.689,9.348
	c0.72,2.844,0.453,4.918-0.753,5.839c-1.617,1.235-4.605,0.181-7.779-2.414l-0.22,0.225C26.889,35.903,29.162,37,30.9,37
	c0.708,0,1.326-0.181,1.825-0.564C34.041,35.433,34.35,33.237,33.596,30.256z"/>
<ellipse transform="matrix(0.7272 -0.6864 0.6864 0.7272 -15.337 23.7065)" style="fill:#FAFAFA;" cx="22.158" cy="31.149" rx="0.435" ry="1.058"/>
<path style="fill:#FAFAFA;" d="M27.5,7.389l0.231,1.591c0.011,0.073,0.044,0.14,0.097,0.193c0.053,0.052,0.12,0.087,0.193,0.097
	l1.59,0.23L28.02,9.731c-0.073,0.011-0.14,0.044-0.193,0.097c-0.052,0.052-0.087,0.12-0.097,0.193l-0.23,1.59l-0.231-1.591
	c-0.011-0.073-0.044-0.14-0.097-0.193c-0.053-0.052-0.12-0.087-0.193-0.097l-1.59-0.23l1.591-0.231
	c0.073-0.011,0.14-0.044,0.193-0.097c0.052-0.052,0.087-0.12,0.097-0.193L27.5,7.389z"/>
<path style="fill:#FAFAFA;" d="M18.5,14.389l0.231,1.591c0.011,0.073,0.044,0.14,0.097,0.193c0.053,0.052,0.12,0.087,0.193,0.097
	l1.59,0.23l-1.591,0.231c-0.073,0.011-0.14,0.044-0.193,0.097c-0.052,0.052-0.087,0.12-0.097,0.193l-0.23,1.59l-0.231-1.591
	c-0.011-0.073-0.044-0.14-0.097-0.193c-0.053-0.052-0.12-0.087-0.193-0.097l-1.59-0.23l1.591-0.231
	c0.073-0.011,0.14-0.044,0.193-0.097c0.052-0.052,0.087-0.12,0.097-0.193L18.5,14.389z"/>
<path style="fill:#FAFAFA;" d="M19.5,35.389l0.231,1.591c0.011,0.073,0.044,0.14,0.097,0.193c0.053,0.052,0.12,0.087,0.193,0.097
	l1.59,0.23l-1.591,0.231c-0.073,0.011-0.14,0.044-0.193,0.097c-0.052,0.052-0.087,0.12-0.097,0.193l-0.23,1.59l-0.231-1.591
	c-0.011-0.073-0.044-0.14-0.097-0.193c-0.053-0.052-0.12-0.087-0.193-0.097l-1.59-0.23l1.591-0.231
	c0.073-0.011,0.14-0.044,0.193-0.097c0.052-0.052,0.087-0.12,0.097-0.193L19.5,35.389z"/>
<path style="fill:#FAFAFA;" d="M38.5,28.389l0.231,1.591c0.011,0.073,0.044,0.14,0.097,0.193c0.052,0.052,0.12,0.087,0.193,0.097
	l1.59,0.23l-1.591,0.231c-0.073,0.011-0.14,0.044-0.193,0.097c-0.052,0.053-0.087,0.12-0.097,0.193l-0.23,1.59l-0.231-1.591
	c-0.011-0.073-0.044-0.14-0.097-0.193c-0.052-0.052-0.12-0.087-0.193-0.097l-1.59-0.23l1.591-0.231
	c0.073-0.011,0.14-0.044,0.193-0.097c0.052-0.053,0.087-0.12,0.097-0.193L38.5,28.389z"/>
<circle style="fill:#FAFAFA;" cx="36.5" cy="33.5" r="0.5"/>
<circle style="fill:#FAFAFA;" cx="12.5" cy="32.5" r="0.5"/>
<circle style="fill:#FAFAFA;" cx="9.5" cy="30.5" r="0.5"/>
<circle style="fill:#FAFAFA;" cx="24.5" cy="11.5" r="0.5"/>
<circle style="fill:#FAFAFA;" cx="20.5" cy="18.5" r="0.5"/>
</svg>
